FFmpeg version SVN-r25716, Copyright (c) 2000-2010 the FFmpeg developers  built on Nov 10 2010 12:23:18 with gcc 4.1.2 20080704 (Red Hat 4.1.2-48)  configuration: --enable-libmp3lame --enable-shared --disable-mmx --arch=x86_64  libavutil     50.33. 0 / 50.33. 0  libavcore      0.12. 1 /  0.12. 1  libavcodec    52.94. 4 / 52.94. 4  libavformat   52.84. 0 / 52.84. 0  libavdevice   52. 2. 2 / 52. 2. 2  libavfilter    1.59. 0 /  1.59. 0  libswscale     0.12. 0 /  0.12. 0Input #0, mov,mp4,m4a,3gp,3g2,mj2, from '/RAID10/data/converted_video_files/7753.mov':  Duration: 00:00:19.26, start: 0.000000, bitrate: 3014 kb/s    Stream #0.0(eng): Video: h264, yuv420p, 528x528 [PAR 1:1 DAR 1:1], 3003 kb/s, 30 fps, 30 tbr, 90k tbn, 60 tbc    Stream #0.1(eng): Audio: aac, 48000 Hz, stereo, s16, 3 kb/s[buffer @ 0x6a14980] w:528 h:528 pixfmt:yuv420pOutput #0, flv, to '/RAID10/data/converted_video_files/7753.flv':  Metadata:    encoder         : Lavf52.84.0    Stream #0.0(eng): Video: flv, yuv420p, 528x528 [PAR 1:1 DAR 1:1], q=2-31, 600 kb/s, 1k tbn, 24 tbc    Stream #0.1(eng): Audio: libmp3lame, 22050 Hz, stereo, s16, 96 kb/sStream mapping:  Stream #0.0 -> #0.0  Stream #0.1 -> #0.1Press [q] to stop encodingframe=   52 fps=  0 q=4.1 size=     326kB time=1.96 bitrate=1364.6kbits/s dup=0 drop=12    frame=  113 fps=109 q=4.9 size=     612kB time=4.52 bitrate=1110.1kbits/s dup=0 drop=28    frame=  169 fps=110 q=3.5 size=     837kB time=6.87 bitrate= 998.3kbits/s dup=0 drop=42    frame=  227 fps=110 q=4.8 size=    1053kB time=9.25 bitrate= 933.0kbits/s dup=0 drop=56    frame=  285 fps=111 q=4.7 size=    1269kB time=11.68 bitrate= 889.9kbits/s dup=0 drop=71    frame=  342 fps=112 q=4.3 size=    1480kB time=14.05 bitrate= 862.6kbits/s dup=0 drop=85    frame=  400 fps=113 q=3.7 size=    1680kB time=16.46 bitrate= 836.5kbits/s dup=0 drop=99    frame=  459 fps=113 q=3.4 size=    1890kB time=18.91 bitrate= 818.8kbits/s dup=0 drop=114    frame=  463 fps=112 q=4.5 Lsize=    1928kB time=19.25 bitrate= 820.2kbits/s dup=0 drop=115    video:1683kB audio:226kB global headers:0kB muxing overhead 0.998762%